<svg xmlns="http://www.w3.org/2000/svg" viewBox="0 0 562.21 183.47">
  <path
    fill="#fff"
    d="M52.58 1.44c7.63 0 11.52 1.87 11.52 5.76 0 2.45-2.16 7.2-4.75 15.26-1.73 5.48-2.3 9.8-6.48 9.8-5 0-5.18-8.64-11.09-8.64-6.33 0-9.36 4.46-9.36 13.1v16.42c0 8.2 8.36 5.76 8.36 12.67 0 3.74-2.88 6.19-7.06 6.19H7.66C3.05 72 .17 69.26.17 65.66c0-4.6 3.74-5.32 6.33-7 2-1.3 2.6-3.17 2.6-6V25.78c0-2.6-8.07-1.73-8.07-7.2C1 15.7 3.62 13.68 8.38 11L23.5 2.16A8.85 8.85 0 0 1 28 .72c3.17 0 4.32 2 4.32 6.05v7.06C38.76 5.62 46 1.44 52.58 1.44ZM41.78 20.3c7.49 0 9.65 8.65 10.95 8.65s1.58-3 3.45-8.5c2.31-7.2 4.32-11.66 4.32-13.39 0-1.44-2.88-2.31-7.77-2.31-12.1 0-18.29 13.4-21.89 13.4-1.44 0-2.16-1.3-2.16-3.75V6.77c0-2-.14-2.74-1-2.74a5.1 5.1 0 0 0-2.3.87l-15.13 8.93c-3.6 2.17-5.62 3.59-5.62 4.75 0 3.17 8.07.43 8.07 9.07v24.91c0 10.22-8.93 8.78-8.93 13.1 0 1.88 1.44 3 3.89 3h26.06c2.16 0 3.46-1 3.46-2.88 0-4.18-8.36-2.74-8.36-12.67V36.72c0-11.23 5.04-16.42 12.96-16.42ZM110 8.79c0 4.89-6.63 5.9-6.63 8.49a7.06 7.06 0 0 0 .72 2.59l8.07 18c.29.72.57 1 1.15 1 .43 0 .72-.14 1-.86l7.63-17.86a9.71 9.71 0 0 0 .72-2.45c0-2.73-6.48-3.88-6.48-8.64 0-3.45 3.17-5.76 8.49-5.76h17.72a6 6 0 0 1 6 6c0 5.9-5.61 3.6-8.92 10.8l-21.6 47.52C109.82 85.25 100.75 94 90.24 94c-10.08 0-12.82-3.17-14-8.21L73 71.57a7.45 7.45 0 0 1-.29-1.73c0-3.6 2.45-5.62 5.91-5.62 5.61 0 5.61 10.08 12.81 10.08 3.75 0 7.92-3 7.92-6.91a6.29 6.29 0 0 0-.72-2.73L80.45 22.9c-1.15-2.6-1.87-4.61-3.75-6-2.73-2-7.34-2.59-7.34-7.49 0-4 2.88-6 8.78-6h24c5.24-.1 7.86 2.21 7.86 5.38ZM78.14 6.48c-3.45 0-5.18.58-5.18 2.59 0 4.32 5.9 1.3 10.8 12.53l17.57 40.32a15.48 15.48 0 0 1 1.44 5.62c0 5.32-5.47 10.08-11.23 10.08-9.22 0-10.66-10.08-13.25-10.08a1.76 1.76 0 0 0-2 2 4.8 4.8 0 0 0 .15 1.3l3.29 14.26c.86 3.6 2.45 5.62 10.37 5.62 9.21 0 17-8.21 24.48-24.48l21.59-47.52c3.6-7.77 8.79-6.34 8.79-9.5a2.61 2.61 0 0 0-2.59-2.74h-17.72c-3.16 0-4.89 1-4.89 2.59 0 2.74 6.62 4 6.62 8.07a11.9 11.9 0 0 1-1 4.32l-7.64 17.42c-1 2.45-2.45 3.6-4.75 3.6s-3.31-1.15-4.46-3.6l-7.78-17.71a9.82 9.82 0 0 1-1-4.18c0-4.32 6.63-5.32 6.63-8.2 0-1.59-1.44-2.31-4.18-2.31Zm145 51.41c1 0 2.31-1.44 3.17-1.44 2.16 0 3.89 2.3 3.89 5.9 0 6.48-6 10.66-17 10.66a20.64 20.64 0 0 1-15.84-7.35c-8.5 5.33-16.71 7.92-25.92 7.92-15.7 0-25.49-9.21-25.49-20.73 0-15 13.39-25.49 35.57-25.49 1.15 0 2.3.14 3.45.14-2.16-7.77-4.46-10.65-11.66-10.65-8.35 0-12.53 6.91-17.28 6.91a4.69 4.69 0 0 1-4.75-5c0-6.48 11.66-17.14 29.09-17.14 15.55 0 23.61 7.92 28.94 25.06l6.77 21.46c2.02 6.58 3.92 9.75 7.06 9.75ZM205.86 27.5C201 11.81 194.2 4.9 180.38 4.9c-15.7 0-25.49 9.21-25.49 13.82 0 1.15.29 1.73 1.15 1.73 2.45 0 8.06-6.91 17.28-6.91 10.22 0 13.25 5 16.7 17.28-2.3-.15-4.46-.29-6.48-.29-21.74 0-34 8.78-34 22.17 0 9.8 8.21 17.57 21.74 17.57 9.36 0 17.86-3 26.93-8.93 4.46 5.76 9.22 8.36 15.84 8.36 7.92 0 12.53-3 12.53-7.2a5.31 5.31 0 0 0-.72-2.45 4.54 4.54 0 0 1-2.74 1.15c-5 0-8.06-4-10.51-12.1Zm-10.08 24.92c0 5.76-5.61 9.64-14 9.64-8.5 0-14.12-5.47-14.12-12.67 0-7.63 6.2-13.53 15.84-13.53 5.33 0 8.5 1.87 9.51 5.32l2.16 7.35a13.4 13.4 0 0 1 .61 3.89Zm-6.19-10.37c-.57-2-2.45-2.88-6.05-2.88-7.63 0-12.24 4.32-12.24 10.22 0 5.47 3.89 9.36 10.52 9.36 6.33 0 10.36-2.45 10.36-6.48a12.54 12.54 0 0 0-.57-2.88Zm93.58-40.47c9.93 0 17.71 8.07 21.6 23.33l3.88 15.41c2.35 9.36 3.75 15.12 5.91 17.68 1.87 2.31 6.05 3.17 6.05 7.63 0 4.18-3 6.34-9.22 6.34h-21.31c-6.34 0-9.65-1.44-9.65-6.19 0-6.19 7.78-6.63 7.78-9.65 0-.72-.87-8.21-4.61-21.6-2.88-10.22-4.61-15-9.36-15-4.32 0-7.49 3.75-7.49 11.09v22.66c0 8.21 8.21 5.62 8.21 12.53 0 3.74-2.74 6.19-6.91 6.19h-25.92c-4.18 0-7.06-2.59-7.06-6.19 0-6.91 8.35-4.32 8.35-12.53V28.37c0-1.73-.14-2.45-1.72-3.17-2.88-1.29-6.92-2.16-6.92-6.33 0-2.88 2.74-5.48 8.07-8.36l15-8.06a10.12 10.12 0 0 1 4.47-1.3q4.32 0 4.32 6.05v3.17c4.86-5.62 11.06-8.79 16.53-8.79ZM283 4.9c-10.08 0-15.12 9.5-17.71 9.5a2.49 2.49 0 0 1-2.3-2.73V7.2c0-1.87-.29-2.74-1-2.74a4.7 4.7 0 0 0-2.45 1l-15 8.07c-4 2.16-6.2 3.74-6.2 5.33 0 3.74 8.64.71 8.64 10.36v24.06c0 9.94-8.35 8.35-8.35 12.53 0 1.87 1.3 2.88 3.46 2.88h25.92c2.16 0 3.31-1 3.31-2.88 0-4.18-8.35-2.74-8.35-12.53V30.67c0-9.21 4.89-14.4 11.23-14.4 6.19 0 9.07 4.61 11.95 14.11 4.36 14.55 5.66 23.62 5.66 25.62 0 5.76-7.64 5.61-7.64 9.79 0 2.73 1.73 2.88 5.91 2.88h21.31c3.89 0 5.47-.72 5.47-3s-2.3-2.73-4.61-5c-3-3-4.6-9.5-7.2-19.58l-3.88-15.41C297.71 12 291.38 4.9 283 4.9Z"
    style="isolation: isolate" transform="translate(-.17 -.72)"
  />
  <g fill="#fff" style="isolation: isolate">
    <path
      d="M104.53 128.32a4.37 4.37 0 0 1-4.46 4.32c-4.9 0-13.53-12.53-28.37-12.53-4.46 0-6.91 1.59-6.91 3.6 0 3.89 7.78 5.47 23 9.79 14.4 4.18 21.74 12 21.74 22.61 0 13.83-10.22 23.47-26.92 23.47-9.22 0-15.41-2.3-18.29-2.3-5 0-4.75 6.91-9.22 6.91-3.45 0-4.6-3-7.2-7.92l-7-13.68c-2.16-4-3-6.77-3-8.06a4.16 4.16 0 0 1 4.18-4c2.88 0 6.19 3.6 12.53 8.35 4.61 3.45 11.95 5.9 19.15 5.9 6.77 0 10.37-2 10.37-4.75 0-4-6.77-5.33-18.72-9.5C49.1 144.74 40 139.7 40 127.17c0-10.66 9.65-19.59 24.2-19.59 8.49 0 14.11 2.45 16.41 2.45 3.31 0 5-4.46 8.79-4.46 2 0 3.16 1.44 4.46 3.6l8.64 14.11c1.17 1.87 2.03 3.31 2.03 5.04ZM90.85 110.9c-.72-1.3-1.15-2-1.58-2-1.15 0-3.89 4.47-8.35 4.47-3.31 0-9.07-2.45-16.85-2.45-12.38 0-20.45 7.48-20.45 16.27 0 10.94 8.5 15.12 23.33 20.3 12.67 4.47 20.74 6.05 20.74 12.67 0 4.61-5 7.92-14 7.92-7.34 0-15-2.3-18.86-4.89-7.64-4.9-11.38-9.36-12.68-9.36-.57 0-.72.43-.72 1s.72 2.73 2.6 6.33l7 13.68c2 3.89 2.88 5.76 4 5.76 1.44 0 2.16-6.62 9.22-6.62 3.17 0 9.36 2.3 18.29 2.3 14.54 0 23.32-8.21 23.32-20 0-9.36-6.19-15.55-19-19.59-15.7-4.89-25.78-5.9-25.78-13 0-3.74 3.89-6.91 10.51-6.91 15.55 0 25.92 12.53 28.23 12.53.72 0 1-.43 1-1.15a7.89 7.89 0 0 0-1.33-3.16Zm65.55 10.22c0-1-5.76-1.44-5.76-6.33 0-3.75 2.44-5.48 7.48-5.48h20.16c5.33 0 8.07 1.73 8.07 5.62 0 6.33-6.63 5.76-10.23 7.49-2.88 1.29-5.47 3.88-5.47 6a6.29 6.29 0 0 0 .72 2.74l11.81 23.62c3 6.19 4.61 9.79 7 11.08 2.74 1.44 4.61 2.31 4.61 6.48 0 3.17-2.16 5.48-5.76 5.48h-15.5c-3.31 0-4.75-1-6.62-4.9l-12.53-25.34c-.86-1.59-1.58-2.31-2.3-2.31a2.29 2.29 0 0 0-1.73.72l-1.87 1.73a6.44 6.44 0 0 0-2.31 5.47v5.91c0 8.2 8.21 5.76 8.21 12.67 0 3.6-2.74 6.19-6.91 6.19h-25.92c-4.18 0-7.06-2.45-7.06-6.19 0-6.91 8.35-4.47 8.35-12.67v-57.71c0-1.58-.14-2.3-1.58-2.88-3.17-1.29-6.48-2.16-6.48-5.9 0-3 2.45-4.9 6.48-7.34l16.13-9.8A9.61 9.61 0 0 1 142 74c3 0 4.32 1.88 4.32 5.62v52.7c6.76-6.32 10.08-10.32 10.08-11.2Zm-2.16-6.33c0 2.88 5.76 2.3 5.76 6 0 2.59-2.45 5.47-6.92 9.94-3.6 3.6-5.76 5.61-7.77 5.61-1.59 0-2.59-1.29-2.59-3.59v-53.1c0-1.58-.29-2.3-1-2.3a4.54 4.54 0 0 0-2.45.86l-16 9.94c-3.17 1.87-4.76 3.16-4.76 4.46 0 3.46 7.92.58 7.92 9.65v56.88c0 9.93-8.35 8.35-8.35 12.67 0 1.87 1.3 2.88 3.46 2.88h25.92c2.16 0 3.31-1 3.31-2.88 0-4.18-8.21-2.74-8.21-12.67V154a11.81 11.81 0 0 1 4.18-9.21l2.73-2.31a4.59 4.59 0 0 1 2.74-1c1.87 0 3.89 1.59 5.33 4.47l12.67 25.63c1 2 1.58 3 3.31 3h15.55c1.44 0 2.16-.72 2.16-2.3 0-2.45-1.15-2.59-2.3-3.17-4-1.87-5.62-5.76-9.07-12.67l-11.66-23.65a11.28 11.28 0 0 1-1.44-4.61c0-3.17 3.75-7.06 7.92-8.93 3.75-1.73 8.07-.72 8.07-4.18 0-2.45-2-2.59-4.47-2.59h-20.16c-2.88 0-3.88.58-3.88 2.31ZM241 171.81c0 3.74-2.74 6.19-6.92 6.19h-25.9c-4.17 0-7.05-2.45-7.05-6.19 0-6.91 8.35-4.47 8.35-12.67v-28.23c0-2 0-2.59-1.44-3.16-2.59-1-6.19-1.73-6.19-5.48 0-2.88 2.45-4.6 6.62-6.48l15.7-6.76a11.12 11.12 0 0 1 4.46-1.3c3 0 4.18 2 4.18 6v45.36c0 8.25 8.19 5.81 8.19 12.72Zm-11.81-58c0-1.59 0-2.45-1.59-2.45a12.1 12.1 0 0 0-2 .72l-15.7 6.77c-2.73 1.15-4.46 2-4.46 3.31 0 3 7.63.43 7.63 8.78v28.23c0 10.08-8.35 8.35-8.35 12.67 0 1.87 1.29 2.88 3.45 2.88h25.93c2.16 0 3.32-1 3.32-2.88 0-4.18-8.21-2.74-8.21-12.67Zm4.17-24.91c0 6.62-9.07 13.68-18.72 13.68-6 0-9.79-3.17-9.79-7.78 0-7.06 9.22-14.11 19.59-14.11 5.2-.03 8.94 2.85 8.94 8.18Zm-9.05-4.9c-7.63 0-15.69 5.18-15.69 11.09 0 2.73 2.16 4.17 6 4.17 7.49 0 15-5.47 15-10.51.02-3.34-1.85-4.75-5.31-4.75Zm70.56 23.58c9.94 0 17.71 8.07 21.6 23.33l3.89 15.41c2.3 9.36 3.74 15.12 5.9 17.71 1.87 2.31 6.05 3.17 6.05 7.63 0 4.18-3 6.34-9.22 6.34h-21.31c-6.33 0-9.65-1.44-9.65-6.19 0-6.19 7.78-6.63 7.78-9.65 0-.72-.86-8.21-4.61-21.6-2.88-10.22-4.6-15-9.36-15-4.32 0-7.48 3.75-7.48 11.09v22.61c0 8.21 8.2 5.62 8.2 12.53 0 3.74-2.73 6.19-6.91 6.19h-25.92c-4.17 0-7.05-2.59-7.05-6.19 0-6.91 8.35-4.32 8.35-12.53v-24.89c0-1.73-.15-2.45-1.73-3.17-2.88-1.29-6.91-2.16-6.91-6.33 0-2.88 2.73-5.48 8.06-8.36l15-8.06a10.12 10.12 0 0 1 4.46-1.3q4.32 0 4.32 6v3.17c4.88-5.57 11.07-8.74 16.54-8.74Zm-.14 3.32c-10.08 0-15.12 9.5-17.71 9.5a2.49 2.49 0 0 1-2.31-2.73v-4.47c0-1.87-.29-2.74-1-2.74a4.7 4.7 0 0 0-2.44 1l-15 8.07c-4 2.16-6.19 3.74-6.19 5.33 0 3.74 8.64.71 8.64 10.36v24.05c0 9.94-8.35 8.35-8.35 12.53 0 1.87 1.29 2.88 3.45 2.88h25.92c2.16 0 3.31-1 3.31-2.88 0-4.18-8.35-2.74-8.35-12.53v-22.6c0-9.21 4.9-14.4 11.23-14.4s9.07 4.61 11.95 14.11c4.32 14.55 5.62 23.62 5.62 25.64 0 5.76-7.63 5.61-7.63 9.79 0 2.73 1.73 2.88 5.9 2.88h21.31c3.89 0 5.48-.72 5.48-3s-2.31-2.73-4.61-5c-3-3-4.61-9.5-7.2-19.58l-3.89-15.41c-3.44-13.7-9.78-20.8-18.13-20.8Z"
      style="isolation: isolate" transform="translate(-.17 -.72)"
    />
    <path
      d="M385.09 106.86c9.94 0 17.71 8.07 21.6 23.33l3.89 15.41c2.3 9.36 3.74 15.12 5.9 17.71 1.87 2.31 6.05 3.17 6.05 7.63 0 4.18-3 6.34-9.22 6.34H392c-6.34 0-9.65-1.44-9.65-6.19 0-6.19 7.78-6.63 7.78-9.65 0-.72-.86-8.21-4.61-21.6-2.88-10.22-4.61-15-9.36-15-4.32 0-7.49 3.75-7.49 11.09v22.61c0 8.21 8.21 5.62 8.21 12.53 0 3.74-2.74 6.19-6.91 6.19h-25.92c-4.18 0-7.06-2.59-7.06-6.19 0-6.91 8.36-4.32 8.36-12.53v-24.89c0-1.73-.15-2.45-1.73-3.17-2.88-1.29-6.91-2.16-6.91-6.33 0-2.88 2.73-5.48 8.06-8.36l15-8.06a10.05 10.05 0 0 1 4.46-1.3q4.32 0 4.32 6v3.17c4.88-5.57 11.07-8.74 16.54-8.74Zm-.14 3.32c-10.08 0-15.12 9.5-17.72 9.5a2.49 2.49 0 0 1-2.3-2.73v-4.47c0-1.87-.29-2.74-1-2.74a4.7 4.7 0 0 0-2.45 1l-15 8.07c-4 2.16-6.19 3.74-6.19 5.33 0 3.74 8.64.71 8.64 10.36v24.05c0 9.94-8.36 8.35-8.36 12.53 0 1.87 1.3 2.88 3.46 2.88h25.92c2.16 0 3.31-1 3.31-2.88 0-4.18-8.35-2.74-8.35-12.53v-22.6c0-9.21 4.9-14.4 11.23-14.4s9.07 4.61 11.95 14.11c4.34 14.55 5.64 23.62 5.64 25.62 0 5.76-7.63 5.61-7.63 9.79 0 2.73 1.73 2.88 5.9 2.88h21.31c3.89 0 5.47-.72 5.47-3s-2.3-2.73-4.6-5c-3-3-4.61-9.5-7.2-19.58l-3.89-15.41c-3.46-13.68-9.79-20.78-18.14-20.78Zm83.66 53.28c11.66 0 16.84-8.79 22.17-8.79a4.78 4.78 0 0 1 5 4.75c0 6.92-15.26 19.59-34.41 19.59-23 0-39-16.13-39-36.58s17.28-35.71 36.58-35.71c12.53 0 22.32 4.9 29.09 14.83 3.74 5.33 5.18 10.52 5.18 12.68 0 2.44-1.29 3.16-5.18 4.46l-36.15 11.66c2.46 8.21 8.65 13.11 16.72 13.11Zm18.28-27.94c2.16-.72 2.89-.86 2.89-2a35.19 35.19 0 0 0-5.95-11.53c-6.33-8.21-14.25-12-24.77-12-17.42 0-33.12 13.83-33.12 32.4 0 19 14.55 33.27 35.43 33.27 16.85 0 30.81-11.09 30.81-16.42a1.33 1.33 0 0 0-1.29-1.44c-3 0-9.8 8.93-22.18 8.93-10.65 0-18-6.34-21.45-18.43Zm-43.77-4.75c0-8.93 5.33-14.83 12.24-14.83 9.22 0 15.55 9.64 15.55 16.84 0 2.45-1.44 3.75-4.61 4.76l-20.47 7.05c-1.56-5.61-2.71-10.22-2.71-13.82Zm22 3.74c1.44-.57 2.16-1.15 2.16-2 0-4.61-4.75-13.25-12-13.25-4.9 0-8.64 4.46-8.64 11.66a34.1 34.1 0 0 0 1.73 9.22Zm85.57-27.79c7.63 0 11.52 1.87 11.52 5.76 0 2.45-2.16 7.2-4.76 15.26-1.72 5.48-2.3 9.8-6.48 9.8-5 0-5.18-8.64-11.08-8.64-6.34 0-9.36 4.46-9.36 13.1v16.42c0 8.2 8.35 5.76 8.35 12.67 0 3.74-2.88 6.19-7.06 6.19h-26.06c-4.61 0-7.49-2.74-7.49-6.34 0-4.6 3.75-5.32 6.34-7 2-1.3 2.59-3.17 2.59-6.05v-26.83c0-2.6-8.07-1.73-8.07-7.2 0-2.88 2.6-4.9 7.35-7.63l15.12-8.79a8.9 8.9 0 0 1 4.46-1.44c3.17 0 4.32 2 4.32 6v7.06c6.45-8.16 13.68-12.34 20.31-12.34Zm-10.8 18.86c7.48 0 9.65 8.65 10.94 8.65s1.58-3 3.46-8.5c2.3-7.2 4.32-11.66 4.32-13.39 0-1.44-2.88-2.31-7.78-2.31-12.1 0-18.29 13.4-21.89 13.4-1.44 0-2.16-1.3-2.16-3.75v-7.63c0-2-.14-2.74-1-2.74a5.09 5.09 0 0 0-2.31.87l-15.12 8.93c-3.6 2.16-5.61 3.59-5.61 4.75 0 3.17 8.06.43 8.06 9.07v24.91c0 10.22-8.93 8.78-8.93 13.1 0 1.88 1.44 3 3.89 3h26.07c2.16 0 3.46-1 3.46-2.88 0-4.18-8.35-2.74-8.35-12.67V142c-.01-11.23 5.03-16.42 12.95-16.42Z"
      style="isolation: isolate"
    />
  </g>
</svg>
