<svg xmlns="http://www.w3.org/2000/svg" width="227.604" height="78.223" viewBox="0 0 227.604 78.223">
  <g id="Light_LOGO" data-name="Light/LOGO" transform="translate(0)">
    <g id="Group_24" data-name="Group 24" transform="translate(23617.15 19999.002)">
      <g id="Group_34" data-name="Group 34" transform="translate(-23790.766 -20101.625)">
        <g id="Group_31" data-name="Group 31">
          <path id="Path_41" data-name="Path 41" d="M292.035,161.735a3.8,3.8,0,0,1,.053-7.59,3.83,3.83,0,0,1,2.873,1.143l-.828.954a2.923,2.923,0,0,0-2.055-.912,2.618,2.618,0,0,0,0,5.221,2.877,2.877,0,0,0,2.106-.954l.828.838A3.787,3.787,0,0,1,292.035,161.735Z" fill="#FFFFFF"/>
          <path id="Path_42" data-name="Path 42" d="M303.18,161.609h-1.362l-.744-1.771H297.6l-.753,1.771h-1.323l3.229-7.389h1.195Zm-3.846-5.849-1.26,2.935H300.6Z" fill="#FFFFFF"/>
          <path id="Path_43" data-name="Path 43" d="M309.566,154.271h1.268v7.338h-1.08l-4.045-5.219v5.219h-1.27v-7.338h1.2l3.931,5.074Z" fill="#FFFFFF"/>
          <path id="Path_44" data-name="Path 44" d="M319.537,161.609h-1.361l-.744-1.771h-3.471l-.754,1.771h-1.322l3.228-7.389h1.2Zm-3.846-5.849-1.259,2.935h2.527Z" fill="#FFFFFF"/>
          <path id="Path_45" data-name="Path 45" d="M323.324,161.609h-2.736v-7.338h2.736a3.676,3.676,0,1,1,0,7.338Zm0-6.164h-1.447v4.99h1.447a2.5,2.5,0,1,0,0-4.99Z" fill="#FFFFFF"/>
          <path id="Path_46" data-name="Path 46" d="M335.1,161.609h-1.364l-.744-1.771h-3.471l-.753,1.771h-1.321l3.229-7.389h1.195Zm-3.848-5.849-1.258,2.935h2.526Z" fill="#FFFFFF"/>
          <path id="Path_47" data-name="Path 47" d="M335.455,155.708h-.535v-1.437h1.394V155.5a1.527,1.527,0,0,1-1.615,1.74l-.135-.546C335.2,156.577,335.508,156.253,335.455,155.708Z" fill="#FFFFFF"/>
          <path id="Path_48" data-name="Path 48" d="M340.33,157.354c1.551.377,2.359.932,2.359,2.159,0,1.383-1.08,2.2-2.621,2.2a4.513,4.513,0,0,1-3.06-1.174l.775-.922a3.374,3.374,0,0,0,2.317.953c.8,0,1.3-.367,1.3-.932,0-.534-.293-.818-1.656-1.132-1.56-.378-2.441-.839-2.441-2.2a2.24,2.24,0,0,1,2.506-2.139,4.064,4.064,0,0,1,2.662.922l-.692.975a3.336,3.336,0,0,0-1.992-.754c-.756,0-1.2.387-1.2.88C338.59,156.767,338.926,157.019,340.33,157.354Z" fill="#FFFFFF"/>
          <path id="Path_49" data-name="Path 49" d="M353.059,156.148a1.741,1.741,0,0,1-1.049,1.646,1.8,1.8,0,0,1,1.457,1.793c0,1.32-1.08,2.022-2.715,2.022h-3.4v-7.338h3.292C352.125,154.271,353.059,154.995,353.059,156.148Zm-1.291.209c0-.6-.461-.943-1.29-.943h-1.855v1.95h1.762C351.213,157.364,351.768,157.039,351.768,156.357Zm.41,3.093c0-.629-.494-1-1.51-1h-2.045v2.013h2.139C351.643,160.467,352.178,160.12,352.178,159.45Z" fill="#FFFFFF"/>
          <path id="Path_50" data-name="Path 50" d="M361.09,158.433c0,2.191-1.238,3.292-3.156,3.292a2.893,2.893,0,0,1-3.124-3.229v-4.225h1.29v4.172c0,1.363.7,2.1,1.855,2.1s1.846-.691,1.846-2.044v-4.225h1.289Z" fill="#FFFFFF"/>
          <path id="Path_51" data-name="Path 51" d="M364.227,154.271v7.338h-1.292v-7.338Z" fill="#FFFFFF"/>
          <path id="Path_52" data-name="Path 52" d="M366.185,154.271h1.29v6.164h3.859v1.174h-5.149Z" fill="#FFFFFF"/>
          <path id="Path_53" data-name="Path 53" d="M375.2,161.609h-2.736v-7.338H375.2a3.676,3.676,0,1,1,0,7.338Zm0-6.164h-1.447v4.99H375.2a2.5,2.5,0,1,0,0-4.99Z" fill="#FFFFFF"/>
          <path id="Path_54" data-name="Path 54" d="M382.029,154.271v7.338h-1.291v-7.338Z" fill="#FFFFFF"/>
          <path id="Path_55" data-name="Path 55" d="M389.115,154.271h1.268v7.338H389.3l-4.045-5.219v5.219h-1.27v-7.338h1.2l3.931,5.074Z" fill="#FFFFFF"/>
          <path id="Path_56" data-name="Path 56" d="M395.752,161.735a3.643,3.643,0,0,1-3.805-3.785,3.741,3.741,0,0,1,3.783-3.8,3.96,3.96,0,0,1,2.821,1l-.817.974a2.877,2.877,0,0,0-2.054-.786,2.479,2.479,0,0,0-2.381,2.6,2.454,2.454,0,0,0,2.5,2.631,2.993,2.993,0,0,0,1.771-.556v-1.373H395.69v-1.121h3.123v3.082A4.678,4.678,0,0,1,395.752,161.735Z" fill="#FFFFFF"/>
          <path id="Path_57" data-name="Path 57" d="M292.7,174.191h-1.3v-6.143h-2.326v-1.194h5.955v1.194H292.7Z" fill="#FFFFFF"/>
          <path id="Path_58" data-name="Path 58" d="M301.094,174.191l-1.8-2.557h-1.615v2.557h-1.289v-7.337h3.269c1.688,0,2.727.891,2.727,2.327a2.2,2.2,0,0,1-1.75,2.232l1.98,2.778Zm-1.541-6.164h-1.877v2.464h1.886c.922,0,1.51-.482,1.51-1.237C301.072,168.446,300.506,168.027,299.553,168.027Z" fill="#FFFFFF"/>
          <path id="Path_59" data-name="Path 59" d="M310.99,174.191h-1.361l-.744-1.771h-3.471l-.754,1.771h-1.322l3.228-7.389h1.2Zm-3.846-5.849-1.259,2.935h2.527Z" fill="#FFFFFF"/>
          <g id="Group_30" data-name="Group 30">
            <path id="Path_60" data-name="Path 60" d="M314.986,174.191H312.25v-7.337h2.736a3.675,3.675,0,1,1,0,7.337Zm0-6.164h-1.447v4.99h1.447a2.5,2.5,0,1,0,0-4.99Z" fill="#FFFFFF"/>
            <path id="Path_61" data-name="Path 61" d="M325.891,168.007h-4.153v1.908h3.68v1.152h-3.68v1.971h4.2v1.153h-5.494v-7.337h5.442Z" fill="#FFFFFF"/>
            <path id="Path_62" data-name="Path 62" d="M330.3,169.935c1.552.379,2.359.933,2.359,2.16,0,1.384-1.08,2.2-2.621,2.2a4.523,4.523,0,0,1-3.061-1.174l.776-.922a3.378,3.378,0,0,0,2.316.953c.8,0,1.3-.367,1.3-.932,0-.535-.293-.818-1.656-1.132-1.563-.378-2.444-.839-2.444-2.2a2.24,2.24,0,0,1,2.506-2.139,4.059,4.059,0,0,1,2.662.922l-.691.974a3.332,3.332,0,0,0-1.992-.753c-.754,0-1.2.387-1.2.881C328.564,169.349,328.9,169.6,330.3,169.935Z" fill="#FFFFFF"/>
          </g>
          <path id="Path_63" data-name="Path 63" d="M343.494,171.015c0,2.191-1.236,3.292-3.154,3.292a2.894,2.894,0,0,1-3.125-3.229v-4.224H338.5v4.171c0,1.363.7,2.1,1.855,2.1s1.846-.691,1.846-2.044v-4.224h1.289Z" fill="#FFFFFF"/>
          <path id="Path_64" data-name="Path 64" d="M350.395,166.854h1.267v7.337h-1.08l-4.045-5.219v5.219h-1.269v-7.337h1.2l3.932,5.073Z" fill="#FFFFFF"/>
          <path id="Path_65" data-name="Path 65" d="M354.914,166.854v7.337h-1.289v-7.337Z" fill="#FFFFFF"/>
          <path id="Path_66" data-name="Path 66" d="M360.166,174.317a3.8,3.8,0,1,1,3.848-3.805A3.727,3.727,0,0,1,360.166,174.317Zm0-6.4a2.483,2.483,0,0,0-2.475,2.6,2.518,2.518,0,0,0,2.5,2.621,2.481,2.481,0,0,0,2.472-2.6A2.516,2.516,0,0,0,360.166,167.912Z" fill="#FFFFFF"/>
          <path id="Path_67" data-name="Path 67" d="M370.283,166.854h1.27v7.337h-1.08l-4.047-5.219v5.219h-1.268v-7.337h1.2l3.93,5.073Z" fill="#FFFFFF"/>
          <path id="Path_68" data-name="Path 68" d="M376.272,169.935c1.55.379,2.359.933,2.359,2.16,0,1.384-1.08,2.2-2.621,2.2a4.516,4.516,0,0,1-3.061-1.174l.776-.922a3.374,3.374,0,0,0,2.316.953c.8,0,1.3-.367,1.3-.932,0-.535-.293-.818-1.656-1.132-1.561-.378-2.442-.839-2.442-2.2a2.24,2.24,0,0,1,2.506-2.139,4.065,4.065,0,0,1,2.662.922l-.691.974a3.341,3.341,0,0,0-1.992-.753c-.756,0-1.2.387-1.2.881C374.531,169.349,374.867,169.6,376.272,169.935Z" fill="#FFFFFF"/>
        </g>
        <g id="Group_32" data-name="Group 32">
          <path id="Path_69" data-name="Path 69" d="M300.879,142.142a15.835,15.835,0,0,1-16.09-16.133v-.09A15.944,15.944,0,0,1,301.146,109.7c5.916,0,9.457,1.972,12.37,4.84l-4.391,5.065c-2.42-2.2-4.885-3.541-8.023-3.541-5.288,0-9.1,4.392-9.1,9.769v.09c0,5.378,3.719,9.859,9.1,9.859,3.585,0,5.781-1.433,8.246-3.674l4.392,4.436A16.033,16.033,0,0,1,300.879,142.142Z" fill="#FFFFFF"/>
          <path id="Path_70" data-name="Path 70" d="M332.383,141.6H317.459V110.233h14.564c6.411,0,10.354,3.183,10.354,8.113v.089a7.3,7.3,0,0,1-4.123,6.767c3.629,1.389,5.871,3.5,5.871,7.708V133C344.125,138.736,339.463,141.6,332.383,141.6Zm3.136-22.094c0-2.062-1.613-3.227-4.525-3.227h-6.812v6.633h6.363c3.047,0,4.974-.986,4.974-3.316Zm1.749,12.549c0-2.108-1.569-3.407-5.11-3.407h-7.976v6.9h8.2c3.047,0,4.885-1.075,4.885-3.407Z" fill="#FFFFFF"/>
          <path id="Path_71" data-name="Path 71" d="M361.334,116.6V141.6h-6.9V116.6h-9.545v-6.365h25.992V116.6Z" fill="#FFFFFF"/>
          <path id="Path_72" data-name="Path 72" d="M387.461,142.1c-8.426,0-13.58-4.706-13.58-13.938V110.233h6.9v17.748c0,5.109,2.555,7.752,6.768,7.752s6.765-2.554,6.765-7.529V110.233h6.9v17.7C401.219,137.436,395.885,142.1,387.461,142.1Z" fill="#FFFFFF"/>
        </g>
        <g id="Group_33" data-name="Group 33">
          <path id="Path_73" data-name="Path 73" d="M199.359,141.332c2.885-8.233,7.662-13.382,12.907-16.575,12.185-8.58,30.636-11.873,41.957-11.549a51.877,51.877,0,0,0-60.17-1.877c-.164,1.951-1.186,17.955,4.746,31.488C199.129,141.886,199.359,141.332,199.359,141.332Z" fill="#3d6279"/>
          <path id="Path_74" data-name="Path 74" d="M205.955,173.4c-25.658-3.912-19.119-7.482-19.119-7.482l8.607-6a59.05,59.05,0,0,1-21.818-8.716c1.332,24.389,18.545,33.047,39.547,28.463,16.513-3.6,30.916-13.583,30.916-13.583Z" fill="#151f35"/>
          <path id="Path_75" data-name="Path 75" d="M272.105,148.8a44.479,44.479,0,0,0-13.138-31.384c-5.633-1.147-16.211-.463-26.6,2.409a38.508,38.508,0,0,1,6.3.58c23.121,3.972,25.258,31.768,25.258,31.768l2.621,1.527v7.147l4.07-.791A43.446,43.446,0,0,0,272.105,148.8Z" fill="#303634"/>
          <path id="Path_76" data-name="Path 76" d="M197.268,148.155c-6.545-11.793-7.35-26.748-7.161-33.864a44.994,44.994,0,0,0-16.492,32.382,55.057,55.057,0,0,0,22.9,9.634A28.8,28.8,0,0,1,197.268,148.155Z" fill="#65869b"/>
        </g>
      </g>
    </g>
  </g>
</svg>